# xmcd CD database file
#
# Track frame offsets:
#	150
#	106992
#	116815
#	128525
#	147192
#	160232
#	222055
#
# Disc length: 4414 seconds
#
# Revision: 0
# Processed by: cddbd v1.5.2PL0 Copyright (c) Steve Scherf et al.
# Submitted via: CDex 1.51
#
DISCID=5c113c07
DTITLE=Ashley Heenan - Jack Winters Dream 
DYEAR=1995
DGENRE=Sjømansvise/Shanty
TTITLE0=Portrait of the orchestra
TTITLE1=Webfoot Charlie's chanty
TTITLE2=Seasong 1
TTITLE3=Seasong 2
TTITLE4=Seasong 3
TTITLE5=A Maori Suite
TTITLE6=War and peace
EXTD=YEAR: 1995
EXTT0=
EXTT1=
EXTT2=
EXTT3=
EXTT4=
EXTT5=
EXTT6=
PLAYORDER=
